<?xml version="1.0" encoding="UTF-8"?>
<svg version="1.1" xmlns="http://www.w3.org/2000/svg" width="1280" height="1280">
<path d="M0 0 C0.80032654 0.18682343 1.60065308 0.37364685 2.42523193 0.56613159 C5.05078218 1.18460558 7.67186537 1.81999481 10.29296875 2.45703125 C11.65299515 2.78125565 11.65299515 2.78125565 13.04049683 3.11203003 C23.92908296 5.71254968 34.71628655 8.55572334 45.43359375 11.79296875 C46.40991257 12.08740372 47.38623138 12.38183868 48.39213562 12.68519592 C53.0959477 14.11178538 57.7882752 15.56764624 62.4699707 17.06518555 C64.20387316 17.60356431 65.93783831 18.14174122 67.671875 18.6796875 C68.4133075 18.92717743 69.15473999 19.17466736 69.91864014 19.42965698 C74.97260776 20.97689442 79.61902267 21.38882394 84.90171814 21.52488708 C95.91399916 22.0116051 106.37806662 24.71168637 117.04296875 27.33203125 C119.03679217 27.81056834 121.03093177 28.28779011 123.02539062 28.76367188 C127.84751842 29.9172059 132.66505538 31.08829561 137.48046875 32.26953125 C137.47916993 33.29566875 137.47787111 34.32180624 137.47653294 35.37903881 C137.44654562 60.3330431 137.45665092 85.28678478 137.50893497 110.24075603 C137.53328835 122.30828771 137.54455507 134.37556805 137.52514648 146.44311523 C137.5082654 156.9597087 137.51580322 167.47595071 137.55281633 177.99249774 C137.57156295 183.56242959 137.57797795 189.13176683 137.55516243 194.7016964 C137.53407952 199.94276113 137.54560801 205.18273528 137.58231354 210.42370415 C137.59001662 212.3485999 137.58573327 214.27358608 137.56865501 216.19842148 C137.5471295 218.82541419 137.56852096 221.4486816 137.60072327 224.07548523 C137.58422432 224.83911068 137.56772538 225.60273613 137.55072647 226.38950175 C137.62468554 229.38949105 137.87104573 231.62604888 139.97962844 233.85247576 C143.87460431 236.74535154 147.22593142 238.0055704 152.10546875 238.58203125 C153.19085937 238.72253906 154.27625 238.86304688 155.39453125 239.0078125 C156.41289063 239.09417969 157.43125 239.18054688 158.48046875 239.26953125 C159.77210938 239.4396875 159.77210938 239.4396875 161.08984375 239.61328125 C164.6934969 239.0951089 165.79022247 237.21345638 168.10546875 234.45703125 C173.96905762 227.6784371 180.28098274 221.40687362 186.66650391 215.12182617 C190.20114308 211.6233741 193.66612211 208.12579237 196.90234375 204.34765625 C202.15229747 198.23536195 208.00854187 192.69942239 213.7421875 187.046875 C217.60786638 183.2146652 221.43840799 179.40542038 224.98046875 175.26953125 C230.19727162 169.17812861 236.03534615 163.67299723 241.7421875 158.046875 C245.59742779 154.22501342 249.41913887 150.42761273 252.94921875 146.30078125 C257.93127364 140.48348221 263.4875775 135.20622229 268.9375 129.83300781 C274.10962355 124.72710417 279.19312062 119.60079014 283.92480469 114.07861328 C286.3981197 111.20239478 288.97414759 108.43849455 291.60546875 105.70703125 C292.10433594 105.16240234 292.60320313 104.61777344 293.1171875 104.05664062 C294.61328125 102.515625 294.61328125 102.515625 297.48046875 100.26953125 C302.13843452 100.49301564 305.79318025 102.96280815 309.6875 105.3125 C310.37172531 105.71857986 311.05595062 106.12465973 311.76091003 106.54304504 C313.20604653 107.40290069 314.64906782 108.26632001 316.09008789 109.13305664 C318.27031781 110.44341759 320.45769889 111.74110175 322.64648438 113.03710938 C338.11648598 122.24474278 338.11648598 122.24474278 344.04785156 127.71508789 C349.06067031 132.31824879 354.69336883 135.31851345 360.71459961 138.44476318 C362.58851826 139.41819248 364.45600763 140.40308378 366.32226562 141.39111328 C368.85503694 142.73117757 371.38960249 144.06771521 373.92626953 145.40039062 C387.70380963 152.64169291 401.23124154 160.20630766 414.54296875 168.26953125 C415.15487061 168.63914978 415.76677246 169.00876831 416.3972168 169.3895874 C418.14781451 170.44922503 419.8948722 171.51443426 421.640625 172.58203125 C422.64746338 173.19691406 423.65430176 173.81179687 424.69165039 174.4453125 C429.59491098 177.65262784 432.9875732 180.58161046 436.1171875 185.56640625 C437.09872803 187.11521484 437.09872803 187.11521484 438.10009766 188.6953125 C438.78249512 189.79230469 439.46489258 190.88929688 440.16796875 192.01953125 C440.88782059 193.16449567 441.6083668 194.30902381 442.32958984 195.453125 C443.75058137 197.71006465 445.16590965 199.97025154 446.57861328 202.23242188 C448.12272619 204.69824532 449.68137485 207.15247153 451.2578125 209.59765625 C456.33214435 217.50582629 460.9704112 225.62396034 465.54296875 233.83203125 C466.44656128 235.45129517 466.44656128 235.45129517 467.3684082 237.10327148 C467.95710693 238.15844971 468.54580566 239.21362793 469.15234375 240.30078125 C469.72275391 241.32300781 470.29316406 242.34523437 470.88085938 243.3984375 C471.86946196 245.1728524 472.85564225 246.94862228 473.83789062 248.7265625 C477.87594158 256.0015151 481.62599261 261.74385051 488.18359375 267.03515625 C492.21289889 270.95482043 494.78300354 275.80853414 497.63671875 280.61328125 C499.72169807 284.10243031 501.9488235 287.4583937 504.26171875 290.80078125 C504.90794189 291.73897705 505.55416504 292.67717285 506.2199707 293.64379883 C507.50182894 295.49501483 508.79439167 297.33887183 510.09838867 299.17456055 C510.68209229 300.02445557 511.2657959 300.87435059 511.8671875 301.75 C512.39530029 302.50176514 512.92341309 303.25353027 513.4675293 304.02807617 C514.48046875 306.26953125 514.48046875 306.26953125 514.46264648 308.7109375 C513.15100219 312.1277986 510.97693449 314.25264155 508.37890625 316.7265625 C507.86421783 317.23321945 507.34952942 317.7398764 506.81924438 318.2618866 C505.17386803 319.87835227 503.51549178 321.48062281 501.85546875 323.08203125 C499.69238013 325.18839888 497.53475363 327.30028628 495.37890625 329.4140625 C494.85359314 329.92760284 494.32828003 330.44114319 493.78704834 330.97024536 C490.44328439 334.25887483 487.32686465 337.65902401 484.29150391 341.22924805 C479.79669906 346.2930232 474.8439705 350.95337101 470.0234375 355.70605469 C464.93392909 360.73040093 459.9595109 365.78160638 455.30859375 371.21875 C450.54850955 376.55858804 445.31074836 381.47221175 440.21875 386.4921875 C436.35307112 390.3243973 432.52252951 394.13364212 428.98046875 398.26953125 C423.76366588 404.36093389 417.92559135 409.86606527 412.21875 415.4921875 C408.29342513 419.38352687 404.42816177 423.24910708 400.859375 427.47265625 C398.50247718 430.24038948 396.04412868 432.55078889 393.2265625 434.84765625 C385.35195355 441.13329733 385.35195355 441.13329733 380.85302734 449.82617188 C380.18235938 460.06566582 382.96218237 467.54148585 389.48046875 475.26953125 C392.73046875 479.70703125 392.73046875 479.70703125 394.18359375 481.703125 C395.41498419 483.40501645 395.41498419 483.40501645 397.48046875 484.26953125 C395.60546875 488.14453125 395.60546875 488.14453125 394.48046875 489.26953125 C459.16046875 489.59953125 523.84046875 489.92953125 590.48046875 490.26953125 C600.62770221 532.12686926 600.62770221 532.12686926 600.6640625 539.25 C601.07331988 549.93700921 604.46280337 559.95658599 607.51168823 570.13317871 C609.26332079 575.99106344 610.95419594 581.86637222 612.64453125 587.7421875 C612.97897751 588.90233368 613.31342377 590.06247986 613.65800476 591.25778198 C616.52777181 601.28300987 619.09984671 611.35354881 621.41796875 621.51953125 C621.58281769 622.22574615 621.74766663 622.93196106 621.91751099 623.65957642 C624.39239619 634.32051128 625.33213314 643.13093177 622.75 653.7890625 C622.46976486 654.98948433 622.46976486 654.98948433 622.18386841 656.2141571 C621.56535992 658.8397437 620.92995415 661.46087091 620.29296875 664.08203125 C620.07681915 664.98904785 619.86066956 665.89606445 619.63796997 666.83056641 C617.04105124 677.70869538 614.20047137 688.4835248 610.95703125 699.1875 C610.5153788 700.64842827 610.5153788 700.64842827 610.06480408 702.13887024 C608.63949716 706.82802349 607.18428293 711.50518686 605.68481445 716.17114258 C605.14634565 717.90176169 604.60816475 719.63247042 604.0703125 721.36328125 C603.82282257 722.09955246 603.57533264 722.83582367 603.32034302 723.59440613 C601.93914442 728.10555982 601.38621882 732.29699168 601.28212595 737.01999283 C600.97537001 748.88511204 598.31916495 759.93445935 595.41796875 771.39453125 C594.9392819 773.33557476 594.4620601 775.27698017 593.98632812 777.21875 C592.83448812 781.90667112 591.66316855 786.58930487 590.48046875 791.26953125 C589.45433125 791.26823243 588.42819376 791.26693361 587.37096119 791.26559544 C562.4169569 791.23560812 537.46321522 791.24571342 512.50924397 791.29799747 C500.44171229 791.32235085 488.37443195 791.33361757 476.30688477 791.31420898 C465.7902913 791.2973279 455.27404929 791.30486572 444.75750226 791.34187883 C439.18757041 791.36062545 433.61823317 791.36704045 428.0483036 791.34422493 C422.80723887 791.32314202 417.56726472 791.33467051 412.32629585 791.37137604 C410.4014001 791.37907912 408.47641392 791.37479577 406.55157852 791.35771751 C403.92458581 791.336192 401.3013184 791.35758346 398.67451477 791.38978577 C397.91088932 791.37328682 397.14726387 791.35678788 396.36049825 791.33978897 C393.36050895 791.41374804 391.12395112 791.66010823 388.89752424 793.76869094 C386.00464846 797.66366681 384.7444296 801.01499392 384.16796875 805.89453125 C384.02746094 806.97992187 383.88695312 808.0653125 383.7421875 809.18359375 C383.65582031 810.20195313 383.56945313 811.2203125 383.48046875 812.26953125 C383.36703125 813.130625 383.25359375 813.99171875 383.13671875 814.87890625 C383.6548911 818.4825594 385.53654362 819.57928497 388.29296875 821.89453125 C395.0715629 827.75812012 401.34312638 834.07004524 407.62817383 840.45556641 C411.1266259 843.99020558 414.62420763 847.45518461 418.40234375 850.69140625 C424.51463805 855.94135997 430.05057761 861.79760437 435.703125 867.53125 C439.5353348 871.39692888 443.34457962 875.22747049 447.48046875 878.76953125 C453.57187139 883.98633412 459.07700277 889.82440865 464.703125 895.53125 C468.5353348 899.39692888 472.34457962 903.22747049 476.48046875 906.76953125 C482.57187139 911.98633412 488.07700277 917.82440865 493.703125 923.53125 C498.21371031 928.08122907 502.75967966 932.49333699 507.62255859 936.66503906 C510.68917335 939.31336918 513.62998457 942.07920781 516.54296875 944.89453125 C517.13529297 945.44109375 517.72761719 945.98765625 518.33789062 946.55078125 C520.015625 948.18359375 520.015625 948.18359375 522.48046875 951.26953125 C522.28694319 955.92275719 519.78323456 959.58880146 517.4375 963.4765625 C517.03142014 964.16078781 516.62534027 964.84501312 516.20695496 965.54997253 C515.34709931 966.99510903 514.48367999 968.43813032 513.61694336 969.87915039 C512.30658241 972.05938031 511.00889825 974.24676139 509.71289062 976.43554688 C500.50525722 991.90554848 500.50525722 991.90554848 495.03491211 997.83691406 C490.43175121 1002.84973281 487.43148655 1008.48243133 484.30523682 1014.50366211 C483.33180752 1016.37758076 482.34691622 1018.24507013 481.35888672 1020.11132812 C480.01882243 1022.64409944 478.68228479 1025.17866499 477.34960938 1027.71533203 C470.10830709 1041.49287213 462.54369234 1055.02030404 454.48046875 1068.33203125 C454.11085022 1068.94393311 453.74123169 1069.55583496 453.3604126 1070.1862793 C452.30077497 1071.93687701 451.23556574 1073.6839347 450.16796875 1075.4296875 C449.55308594 1076.43652588 448.93820312 1077.44336426 448.3046875 1078.48071289 C445.09737216 1083.38397348 442.16838954 1086.7766357 437.18359375 1089.90625 C436.15105469 1090.56061035 435.11851563 1091.2149707 434.0546875 1091.88916016 C432.95769531 1092.57155762 431.86070313 1093.25395508 430.73046875 1093.95703125 C429.58550433 1094.67688309 428.44097619 1095.3974293 427.296875 1096.11865234 C425.03993535 1097.53964387 422.77974846 1098.95497215 420.51757812 1100.36767578 C418.05175468 1101.91178869 415.59752847 1103.47043735 413.15234375 1105.046875 C405.24417371 1110.12120685 397.12603966 1114.7594737 388.91796875 1119.33203125 C387.83845947 1119.93442627 386.7589502 1120.53682129 385.64672852 1121.1574707 C384.59155029 1121.74616943 383.53637207 1122.33486816 382.44921875 1122.94140625 C381.42699219 1123.51181641 380.40476562 1124.08222656 379.3515625 1124.66992188 C377.5771476 1125.65852446 375.80137772 1126.64470475 374.0234375 1127.62695312 C366.7484849 1131.66500408 361.00614949 1135.41505511 355.71484375 1141.97265625 C351.79517957 1146.00196139 346.94146586 1148.57206604 342.13671875 1151.42578125 C338.64756969 1153.51076057 335.2916063 1155.737886 331.94921875 1158.05078125 C331.01102295 1158.69700439 330.07282715 1159.34322754 329.10620117 1160.0090332 C327.25498517 1161.29089144 325.41112817 1162.58345417 323.57543945 1163.88745117 C322.72554443 1164.47115479 321.87564941 1165.0548584 321 1165.65625 C320.24823486 1166.18436279 319.49646973 1166.71247559 318.72192383 1167.2565918 C316.48046875 1168.26953125 316.48046875 1168.26953125 314.05273438 1168.26538086 C310.54628976 1166.90786495 308.34983071 1164.61641079 305.8046875 1161.94921875 C305.2758345 1161.41233429 304.74698151 1160.87544983 304.20210266 1160.32229614 C302.51432397 1158.60559653 300.84071371 1156.87587171 299.16796875 1155.14453125 C296.96782726 1152.88771314 294.76218389 1150.63634119 292.5546875 1148.38671875 C292.01999847 1147.84025696 291.48530945 1147.29379517 290.93441772 1146.73077393 C287.58021612 1143.32244814 284.11825612 1140.12781539 280.47192383 1137.03173828 C275.13812589 1132.31194503 270.25562671 1127.07733136 265.2578125 1122.0078125 C261.4256027 1118.14213362 257.61635788 1114.31159201 253.48046875 1110.76953125 C247.38906611 1105.55272838 241.88393473 1099.71465385 236.2578125 1094.0078125 C232.4256027 1090.14213362 228.61635788 1086.31159201 224.48046875 1082.76953125 C218.38906611 1077.55272838 212.88393473 1071.71465385 207.2578125 1066.0078125 C202.75738923 1061.46808423 198.2120178 1057.10955663 193.35253906 1052.95849609 C191.36747724 1051.16759133 189.57218777 1049.27845816 187.76953125 1047.3046875 C187.16367187 1046.65048828 186.5578125 1045.99628906 185.93359375 1045.32226562 C184.70468673 1043.98438501 183.49383643 1042.62971319 182.30078125 1041.25976562 C179.69343579 1038.49498511 177.81716412 1036.51109796 173.99609375 1035.82055664 C171.45079657 1035.80885248 169.00857938 1035.98684778 166.48046875 1036.26953125 C165.3821875 1036.28628906 164.28390625 1036.30304688 163.15234375 1036.3203125 C152.99502045 1037.23012622 146.69069633 1042.51775745 139.48046875 1049.26953125 C137.95692694 1052.31661488 138.32663961 1055.49331598 138.32225037 1058.83706665 C138.31731239 1059.62690111 138.31237441 1060.41673556 138.3072868 1061.23050439 C138.29186238 1063.89146037 138.28353784 1066.55239213 138.27514648 1069.21337891 C138.26557184 1071.11512975 138.25556201 1073.01687845 138.24514771 1074.91862488 C138.21804772 1080.09394753 138.19706578 1085.26927936 138.17714572 1090.44463396 C138.15531752 1095.8485536 138.12791338 1101.25244482 138.10108948 1106.65634155 C138.05111968 1116.89501557 138.00619679 1127.13370532 137.96306711 1137.37241018 C137.91373132 1149.02642529 137.85879966 1160.6804119 137.80338752 1172.33439946 C137.68950168 1196.31275014 137.58267706 1220.29112815 137.48046875 1244.26953125 C131.67231157 1245.69428998 125.859785 1247.0990986 120.04272461 1248.48706055 C118.0720652 1248.96003805 116.10261193 1249.43807502 114.13452148 1249.92163086 C103.03044181 1252.64602034 92.41941559 1254.82092873 80.96588421 1255.10611725 C75.92463354 1255.34247672 71.43218256 1256.56673492 66.65625 1258.11328125 C65.71702698 1258.39863739 64.77780396 1258.68399353 63.81011963 1258.97799683 C61.82120299 1259.58307817 59.83461873 1260.19587615 57.85037231 1260.81610107 C52.60024738 1262.45331626 47.32962625 1264.02148711 42.05859375 1265.58984375 C40.47269188 1266.06292465 40.47269188 1266.06292465 38.85475159 1266.54556274 C28.65785645 1269.56189139 18.38862867 1272.19324608 8.04296875 1274.64453125 C6.8625853 1274.93034058 6.8625853 1274.93034058 5.65835571 1275.22192383 C3.43633861 1275.75773561 1.21138945 1276.27836991 -1.015625 1276.79296875 C-2.25497803 1277.08091309 -3.49433105 1277.36885742 -4.77124023 1277.66552734 C-12.24952512 1278.87058673 -18.89223365 1278.27076362 -26.22265625 1276.5390625 C-27.04253525 1276.35223907 -27.86241425 1276.16541565 -28.70713806 1275.97293091 C-31.39747017 1275.35433178 -34.08350666 1274.71905459 -36.76953125 1274.08203125 C-37.6979483 1273.86588165 -38.62636536 1273.64973206 -39.58291626 1273.42703247 C-50.74167769 1270.82376087 -61.8032681 1267.9790002 -72.796875 1264.74609375 C-74.29956436 1264.3044413 -74.29956436 1264.3044413 -75.83261108 1263.85386658 C-80.66273109 1262.4257319 -85.48218178 1260.96894888 -90.29199219 1259.47387695 C-92.06963555 1258.93562407 -93.84730364 1258.39745283 -95.625 1257.859375 C-96.39029526 1257.61188507 -97.15559052 1257.36439514 -97.94407654 1257.10940552 C-102.85356278 1255.63972078 -107.34991221 1255.15554442 -112.47358704 1255.01417542 C-123.11107146 1254.51270366 -133.2308354 1251.78802309 -143.51953125 1249.20703125 C-145.46974485 1248.7285637 -147.42026455 1248.25134201 -149.37109375 1247.77539062 C-154.09088256 1246.62106663 -158.80623946 1245.45009071 -163.51953125 1244.26953125 C-163.51270167 1243.26861765 -163.5058721 1242.26770405 -163.49883556 1241.23645973 C-163.33552435 1216.86494918 -163.24718146 1192.49404164 -163.23712444 1168.12197304 C-163.23053114 1156.33560098 -163.1997158 1144.55022775 -163.11157227 1132.76416016 C-163.03479358 1122.48947572 -163.00377356 1112.21583764 -163.02734786 1101.94087541 C-163.03823892 1096.50147431 -163.02645818 1091.06428267 -162.95984459 1085.6252327 C-162.89780766 1080.50076958 -162.89716254 1075.37989183 -162.94272995 1070.25529099 C-162.94875169 1068.37918448 -162.93272304 1066.50285136 -162.89248466 1064.62716675 C-162.42634413 1055.11439412 -162.42634413 1055.11439412 -165.79013276 1046.52195501 C-170.43215678 1041.78870126 -176.17847875 1038.39182335 -182.4765625 1036.3359375 C-187.57542741 1036.33696778 -190.64755784 1039.44882902 -194.15625 1042.796875 C-196.55998522 1045.21863118 -198.88391761 1047.70822797 -201.20703125 1050.20703125 C-202.40044912 1051.44711638 -203.59639502 1052.68477382 -204.79492188 1053.91992188 C-209.38071017 1058.67276986 -213.89076554 1063.48185224 -218.1953125 1068.4921875 C-223.36087271 1074.4988202 -229.14391662 1079.9345901 -234.78125 1085.4921875 C-238.64692888 1089.3243973 -242.47747049 1093.13364212 -246.01953125 1097.26953125 C-251.23633412 1103.36093389 -257.07440865 1108.86606527 -262.78125 1114.4921875 C-266.64692888 1118.3243973 -270.47747049 1122.13364212 -274.01953125 1126.26953125 C-279.23633412 1132.36093389 -285.07440865 1137.86606527 -290.78125 1143.4921875 C-294.63689483 1147.31445012 -298.4596233 1151.11284282 -301.9921875 1155.23828125 C-306.52316392 1160.52911086 -311.51252228 1165.36953714 -316.45703125 1170.26953125 C-317.43708435 1171.24455511 -318.41690365 1172.21981405 -319.39648438 1173.1953125 C-321.76855438 1175.55569743 -324.14293985 1177.9137003 -326.51953125 1180.26953125 C-330.36193341 1178.10981146 -334.19006081 1175.92829187 -338.00537109 1173.72119141 C-339.82622423 1172.66984234 -341.64982575 1171.62324854 -343.47509766 1170.57958984 C-346.74964328 1168.70090014 -350.01016306 1166.79941298 -353.26953125 1164.89453125 C-354.32197021 1164.29503662 -355.37440918 1163.69554199 -356.45874023 1163.07788086 C-362.98695233 1159.22988217 -367.92366705 1155.01561337 -373.13818359 1149.54052734 C-376.68430026 1146.15873759 -380.5171746 1144.24624123 -384.95703125 1142.26953125 C-386.72480152 1141.43146377 -388.49170959 1140.59157553 -390.2578125 1139.75 C-391.14033691 1139.33669434 -392.02286133 1138.92338867 -392.93212891 1138.49755859 C-409.29792228 1130.73006089 -424.90558668 1121.42118923 -440.51953125 1112.26953125 C-441.35758301 1111.77936523 -442.19563477 1111.28919922 -443.05908203 1110.78417969 C-453.64932374 1104.57493224 -460.65835257 1099.6487167 -467.14453125 1089.08203125 C-468.39893911 1087.06981327 -469.65415448 1085.05809847 -470.91015625 1083.046875 C-471.52568359 1082.05671387 -472.14121094 1081.06655273 -472.77539062 1080.04638672 C-474.67497396 1077.02205009 -476.63623367 1074.04510273 -478.61523438 1071.07250977 C-483.99078223 1062.97123086 -488.84426046 1054.59393872 -493.64453125 1046.14453125 C-493.99150055 1045.53444214 -494.33846985 1044.92435303 -494.69595337 1044.29577637 C-497.47087074 1039.41538201 -500.24384105 1034.53387083 -502.99951172 1029.64257812 C-504.18115501 1027.55235476 -505.37823333 1025.47204473 -506.58203125 1023.39453125 C-507.19175781 1022.32460937 -507.80148437 1021.2546875 -508.4296875 1020.15234375 C-510.21266685 1017.69283205 -511.45249927 1016.44291165 -513.7734375 1014.63671875 C-518.8913823 1010.45110481 -521.96644825 1004.84233605 -525.39453125 999.26953125 C-526.79500627 997.0256879 -528.19604466 994.78219607 -529.59765625 992.5390625 C-530.6021582 990.92185303 -530.6021582 990.92185303 -531.62695312 989.27197266 C-533.24944099 986.69801036 -534.91222394 984.1678408 -536.62890625 981.65625 C-537.06348145 981.01494141 -537.49805664 980.37363281 -537.94580078 979.71289062 C-539.05796806 978.08382605 -540.18276292 976.46340193 -541.30859375 974.84375 C-542.51953125 972.26953125 -542.51953125 972.26953125 -542.00390625 970.2265625 C-534.61472259 960.4845072 -525.3727366 952.03609257 -516.68994141 943.4765625 C-513.02608282 939.85065281 -509.42081761 936.23252329 -506.06640625 932.31640625 C-500.82967771 926.21248768 -494.9807419 920.68885773 -489.2578125 915.046875 C-485.39213362 911.2146652 -481.56159201 907.40542038 -478.01953125 903.26953125 C-472.80272838 897.17812861 -466.96465385 891.67299723 -461.2578125 886.046875 C-457.39213362 882.2146652 -453.56159201 878.40542038 -450.01953125 874.26953125 C-444.80272838 868.17812861 -438.96465385 862.67299723 -433.2578125 857.046875 C-428.6882546 852.51688037 -424.26886082 847.94780507 -420.08349609 843.06054688 C-417.70592413 840.33780759 -415.15993942 837.80108699 -412.58203125 835.26953125 C-412.08896484 834.78097656 -411.59589844 834.29242187 -411.08789062 833.7890625 C-409.90079896 832.613496 -408.71052627 831.44114299 -407.51953125 830.26953125 C-409.16953125 829.93953125 -410.81953125 829.60953125 -412.51953125 829.26953125 C-412.62910156 828.05136719 -412.73867188 826.83320312 -412.8515625 825.578125 C-413.0111224 823.95436837 -413.17131218 822.33067355 -413.33203125 820.70703125 C-413.40228516 819.90716797 -413.47253906 819.10730469 -413.54492188 818.28320312 C-413.62548828 817.49365234 -413.70605469 816.70410156 -413.7890625 815.890625 C-413.89118042 814.81445923 -413.89118042 814.81445923 -413.99536133 813.71655273 C-415.72970364 805.61999336 -420.49456664 796.8939166 -427.51953125 792.26953125 C-433.54271853 790.13812083 -440.17246547 790.69208952 -446.46337891 790.81542969 C-448.37618398 790.80894435 -450.2889773 790.79718052 -452.20172119 790.78056335 C-457.37148107 790.75049895 -462.5382797 790.79390033 -467.70771456 790.8508749 C-473.11829031 790.89789022 -478.52859937 790.87682573 -483.93930054 790.86309814 C-494.17467018 790.84741502 -504.40882131 790.89262621 -514.6439451 790.95992017 C-526.30057217 791.03358019 -537.95692254 791.03904621 -549.61374593 791.03889036 C-573.58279917 791.04009218 -597.55093371 791.12658717 -621.51953125 791.26953125 C-622.94648487 785.622734 -624.35110062 779.97096354 -625.73706055 774.31396484 C-626.20944869 772.39846217 -626.68745391 770.4843342 -627.17163086 768.57177734 C-630.01440826 757.3246518 -632.1054485 746.6193833 -632.35611725 735.00016403 C-632.58288841 729.82312942 -633.76665811 725.24799667 -635.36328125 720.34765625 C-635.64863739 719.40984818 -635.93399353 718.4720401 -636.22799683 717.5058136 C-636.83243784 715.52267101 -637.44522765 713.54205493 -638.06610107 711.56399536 C-639.70582009 706.3280947 -641.27193028 701.07026857 -642.83984375 695.8125 C-643.15523102 694.75832382 -643.47061829 693.70414764 -643.79556274 692.61802673 C-646.81813661 682.43113323 -649.44602376 672.17023141 -651.89453125 661.83203125 C-652.0850708 661.04501831 -652.27561035 660.25800537 -652.47192383 659.44714355 C-653.00772128 657.22521523 -653.52835849 655.0003573 -654.04296875 652.7734375 C-654.33091309 651.53408447 -654.61885742 650.29473145 -654.91552734 649.01782227 C-656.12058673 641.53953738 -655.52076362 634.89682885 -653.7890625 627.56640625 C-653.60223907 626.74652725 -653.41541565 625.92664825 -653.22293091 625.08192444 C-652.60433178 622.39159233 -651.96905459 619.70555584 -651.33203125 617.01953125 C-651.11588165 616.0911142 -650.89973206 615.16269714 -650.67703247 614.20614624 C-648.07376087 603.04738481 -645.2290002 591.9857944 -641.99609375 580.9921875 C-641.70165878 579.99039459 -641.40722382 578.98860168 -641.10386658 577.95645142 C-639.6757319 573.12633141 -638.21894888 568.30688072 -636.72387695 563.49707031 C-633.89530391 554.24407984 -632.10341581 546.0731182 -631.81469727 536.3762207 C-631.40191454 528.09938809 -628.9701674 519.97656349 -627.01953125 511.95703125 C-626.59778639 510.17670951 -626.17720712 508.39611123 -625.7578125 506.61523438 C-622.78621526 494.06958327 -622.78621526 494.06958327 -621.51953125 490.26953125 C-620.51861765 490.27636083 -619.51770405 490.2831904 -618.48645973 490.29022694 C-594.11494918 490.45353815 -569.74404164 490.54188104 -545.37197304 490.55193806 C-533.58560098 490.55853136 -521.80022775 490.5893467 -510.01416016 490.67749023 C-499.73947572 490.75426892 -489.46583764 490.78528894 -479.19087541 490.76171464 C-473.75147431 490.75082358 -468.31428267 490.76260432 -462.8752327 490.82921791 C-457.75076958 490.89125484 -452.62989183 490.89189996 -447.50529099 490.84633255 C-445.62918448 490.84031081 -443.75285136 490.85633946 -441.87716675 490.89657784 C-432.36439412 491.36271837 -432.36439412 491.36271837 -423.77195501 487.99892974 C-419.03870126 483.35690572 -415.64182335 477.61058375 -413.5859375 471.3125 C-413.58696778 466.21363509 -416.69882902 463.14150466 -420.046875 459.6328125 C-422.46863118 457.22907728 -424.95822797 454.90514489 -427.45703125 452.58203125 C-428.69711638 451.38861338 -429.93477382 450.19266748 -431.16992188 448.99414062 C-435.92276986 444.40835233 -440.73185224 439.89829696 -445.7421875 435.59375 C-451.7488202 430.42818979 -457.1845901 424.64514588 -462.7421875 419.0078125 C-466.5743973 415.14213362 -470.38364212 411.31159201 -474.51953125 407.76953125 C-480.61093389 402.55272838 -486.11606527 396.71465385 -491.7421875 391.0078125 C-495.5743973 387.14213362 -499.38364212 383.31159201 -503.51953125 379.76953125 C-509.61093389 374.55272838 -515.11606527 368.71465385 -520.7421875 363.0078125 C-524.56445012 359.15216767 -528.36284282 355.3294392 -532.48828125 351.796875 C-537.77911086 347.26589858 -542.61953714 342.27654022 -547.51953125 337.33203125 C-548.49455511 336.35197815 -549.46981405 335.37215885 -550.4453125 334.39257812 C-552.80569743 332.02050812 -555.1637003 329.64612265 -557.51953125 327.26953125 C-555.35981146 323.42712909 -553.17829187 319.59900169 -550.97119141 315.78369141 C-549.91984234 313.96283827 -548.87324854 312.13923675 -547.82958984 310.31396484 C-545.95090014 307.03941922 -544.04941298 303.77889944 -542.14453125 300.51953125 C-541.54503662 299.46709229 -540.94554199 298.41465332 -540.32788086 297.33032227 C-536.47988217 290.80211017 -532.26561337 285.86539545 -526.79052734 280.65087891 C-523.40882763 277.10485666 -521.49592611 273.27196054 -519.51953125 268.83203125 C-518.68546392 267.07072774 -517.84947759 265.31033189 -517.01171875 263.55078125 C-516.59889648 262.6690625 -516.18607422 261.78734375 -515.76074219 260.87890625 C-513.82473144 256.80886636 -511.74850847 252.81728059 -509.64453125 248.83203125 C-509.2357373 248.05730469 -508.82694336 247.28257812 -508.40576172 246.484375 C-501.33598297 233.19330043 -493.72052858 220.20240405 -486.01953125 207.26953125 C-485.52727051 206.43881104 -485.03500977 205.60809082 -484.52783203 204.75219727 C-479.49065626 196.35661452 -474.68935477 191.77453099 -466.33203125 186.64453125 C-464.31981327 185.39012339 -462.30809847 184.13490802 -460.296875 182.87890625 C-459.30671387 182.26337891 -458.31655273 181.64785156 -457.29638672 181.01367188 C-454.27205009 179.11408854 -451.29510273 177.15282883 -448.32250977 175.17382812 C-440.22123086 169.79828027 -431.84393872 164.94480204 -423.39453125 160.14453125 C-422.47939758 159.6240773 -422.47939758 159.6240773 -421.54577637 159.09310913 C-416.66538201 156.31819176 -411.78387083 153.54522145 -406.89257812 150.78955078 C-404.80235476 149.60790749 -402.72204473 148.41082917 -400.64453125 147.20703125 C-399.57460938 146.59730469 -398.5046875 145.98757812 -397.40234375 145.359375 C-394.94283205 143.57639565 -393.69291165 142.33656323 -391.88671875 140.015625 C-387.70110481 134.8976802 -382.09233605 131.82261425 -376.51953125 128.39453125 C-374.2756879 126.99405623 -372.03219607 125.59301784 -369.7890625 124.19140625 C-368.17185303 123.1869043 -368.17185303 123.1869043 -366.52197266 122.16210938 C-363.94801036 120.53962151 -361.4178408 118.87683856 -358.90625 117.16015625 C-357.94428711 116.50829346 -357.94428711 116.50829346 -356.96289062 115.84326172 C-355.33382605 114.73109444 -353.71340193 113.60629958 -352.09375 112.48046875 C-349.51953125 111.26953125 -349.51953125 111.26953125 -347.48046875 111.78125 C-337.97898112 118.99253842 -329.71866326 127.97957279 -321.37084961 136.45483398 C-317.88395604 139.98036148 -314.3978336 143.43567212 -310.62890625 146.66015625 C-304.79042064 151.67493102 -299.482504 157.24998309 -294.08300781 162.7265625 C-289.05866157 167.81607091 -284.00745612 172.7904891 -278.5703125 177.44140625 C-273.23047446 182.20149045 -268.31685075 187.43925164 -263.296875 192.53125 C-259.4646652 196.39692888 -255.65542038 200.22747049 -251.51953125 203.76953125 C-245.42812861 208.98633412 -239.92299723 214.82440865 -234.296875 220.53125 C-229.76688037 225.1008079 -225.19780507 229.52020168 -220.31054688 233.70556641 C-217.58780759 236.08313837 -215.05108699 238.62912308 -212.51953125 241.20703125 C-212.03097656 241.70009766 -211.54242188 242.19316406 -211.0390625 242.70117188 C-209.863496 243.88826354 -208.69114299 245.07853623 -207.51953125 246.26953125 C-207.39578125 245.63015625 -207.27203125 244.99078125 -207.14453125 244.33203125 C-206.93828125 243.65140625 -206.73203125 242.97078125 -206.51953125 242.26953125 C-202.64405447 240.33179286 -197.65695558 240.59249961 -193.34765625 240.28320312 C-188.00762413 239.78696659 -184.81418683 238.70168675 -180.51953125 235.26953125 C-179.99681641 234.85276123 -179.47410156 234.43599121 -178.93554688 234.0065918 C-177.31868076 232.69956032 -175.72911582 231.36545 -174.14453125 230.01953125 C-173.59925781 229.560625 -173.05398438 229.10171875 -172.4921875 228.62890625 C-171.16566989 227.51183879 -169.84226706 226.39107423 -168.51953125 225.26953125 C-167.19953125 226.25953125 -165.87953125 227.24953125 -164.51953125 228.26953125 C-164.18953125 163.58953125 -163.85953125 98.90953125 -163.51953125 32.26953125 C-121.51953125 22.26953125 -121.51953125 22.26953125 -105.51953125 21.26953125 C-101.42402466 20.35798603 -97.57875226 19.39988676 -93.59375 18.171875 C-92.53370255 17.86154327 -91.47365509 17.55121155 -90.38148499 17.23147583 C-88.13762038 16.57386575 -85.89576199 15.90937437 -83.65588379 15.23831177 C-77.79799906 13.48667921 -71.92269028 11.79580406 -66.046875 10.10546875 C-64.88672882 9.77102249 -63.72658264 9.43657623 -62.53128052 9.09199524 C-52.50605263 6.22222819 -42.43551369 3.65015329 -32.26953125 1.33203125 C-31.56331635 1.16718231 -30.85710144 1.00233337 -30.12948608 0.83248901 C-19.46854116 -1.64239853 -10.65813954 -2.58211753 0 0 Z M-161.51953125 294.26953125 C-163.93713248 301.0319075 -165.70543967 307.84650252 -167.3034668 314.84326172 C-167.56415451 315.96853775 -167.82484222 317.09381378 -168.09342957 318.25318909 C-168.95186205 321.96341876 -169.80409222 325.67504335 -170.65625 329.38671875 C-171.26019457 332.00294467 -171.86447653 334.61909045 -172.4691925 337.23513794 C-173.90098501 343.43262448 -175.32827181 349.63113964 -176.75396615 355.83003151 C-178.34525354 362.74784261 -179.94182817 369.66442966 -181.53875899 376.58093977 C-187.90031161 404.13585304 -194.23911405 431.69600025 -200.51953125 459.26953125 C-219.35398185 464.80545154 -238.33202145 469.81254839 -257.29919434 474.86904907 C-263.07549124 476.40901502 -268.85077255 477.95276766 -274.62597656 479.49682617 C-290.77688456 483.81364821 -306.92930312 488.12392607 -323.09765625 492.375 C-325.2376544 492.9391986 -327.37762978 493.50348359 -329.51757812 494.06787109 C-333.24609354 495.05113494 -336.97674718 496.02560036 -340.70898438 496.99462891 C-342.30737868 497.41535967 -343.90569271 497.83639558 -345.50390625 498.2578125 C-346.55520721 498.52648384 -346.55520721 498.52648384 -347.62774658 498.80058289 C-350.59904236 499.59140491 -352.30473346 500.05473346 -354.51953125 502.26953125 C-354.10405029 502.95015625 -353.68856934 503.63078125 -353.26049805 504.33203125 C-344.76354067 518.26245653 -336.33030856 532.22716132 -328.01953125 546.26953125 C-322.07905462 556.3065297 -316.09110399 566.31127523 -310.01953125 576.26953125 C-302.99415946 587.79522088 -296.07665711 599.38236584 -289.20117188 610.99804688 C-288.82810913 611.6278244 -288.45504639 612.25760193 -288.07067871 612.90646362 C-287.33407428 614.15167876 -286.59910182 615.39786087 -285.86584473 616.64505005 C-283.9294397 619.9305445 -281.95465432 623.18472535 -279.921875 626.41162109 C-279.49914307 627.09093185 -279.07641113 627.77024261 -278.64086914 628.47013855 C-277.82874588 629.77244899 -277.00674888 631.06866992 -276.17358398 632.35762024 C-273.50300846 636.66694791 -273.50300846 636.66694791 -273.57617188 639.33520508 C-274.86119127 641.97009345 -276.24882008 644.49273813 -277.73828125 647.01953125 C-278.06762665 647.58086258 -278.39697205 648.14219391 -278.73629761 648.72053528 C-279.82554974 650.57329564 -280.9223219 652.42147373 -282.01953125 654.26953125 C-282.79140293 655.57758562 -283.56304641 656.88577468 -284.33447266 658.1940918 C-290.14139389 668.02352278 -296.05393258 677.7874201 -302 687.53320312 C-307.40914185 696.40472287 -312.72787615 705.32751602 -318.01953125 714.26953125 C-324.04581119 724.45066484 -330.11914628 734.60037028 -336.26953125 744.70703125 C-336.9621566 745.84679397 -337.65470286 746.98660476 -338.34716797 748.12646484 C-341.5043279 753.3208893 -344.66678572 758.51191358 -347.84387207 763.69416809 C-348.92780063 765.4650087 -350.00810429 767.23799998 -351.08691406 769.01196289 C-352.43135783 771.22212763 -353.78201355 773.42852879 -355.13964844 775.63061523 C-355.73165039 776.60716064 -356.32365234 777.58370605 -356.93359375 778.58984375 C-357.45904785 779.44852051 -357.98450195 780.30719727 -358.52587891 781.19189453 C-359.01773682 782.22032471 -359.01773682 782.22032471 -359.51953125 783.26953125 C-359.18953125 783.92953125 -358.85953125 784.58953125 -358.51953125 785.26953125 C-356.11528334 786.00001498 -353.76559022 786.6036903 -351.31860352 787.15454102 C-350.55807993 787.3326768 -349.79755634 787.51081259 -349.01398659 787.69434643 C-346.45642787 788.29122532 -343.89625814 788.87602875 -341.3359375 789.4609375 C-339.51963557 789.88220235 -337.7035022 790.30419456 -335.88752747 790.72686768 C-330.97512786 791.86800142 -326.06038166 792.99871259 -321.14513397 794.12750626 C-316.04998211 795.29941009 -310.95700887 796.48070615 -305.86376953 797.66088867 C-294.42580552 800.30918578 -282.98448554 802.94279492 -271.54259491 805.57406616 C-266.69429369 806.68943276 -261.84641803 807.80664489 -256.99853516 808.92382812 C-236.17584657 813.72167105 -215.34982698 818.50482214 -194.51953125 823.26953125 C-189.17898822 842.30798191 -183.92338177 861.36699185 -178.828125 880.47265625 C-178.58857716 881.37068466 -178.34902931 882.26871307 -178.10222244 883.19395447 C-176.13717173 890.56323597 -174.17641921 897.9336596 -172.21655273 905.30432129 C-170.50622345 911.73609519 -168.79390795 918.1673349 -167.078125 924.59765625 C-166.72461535 925.92265892 -166.72461535 925.92265892 -166.36396408 927.27442932 C-161.90152976 943.98293197 -157.26521309 960.63936989 -152.51953125 977.26953125 C-141.79244003 971.16121599 -141.79244003 971.16121599 -131.13671875 964.9296875 C-130.52281281 964.56576401 -129.90890686 964.20184052 -129.27639771 963.82688904 C-127.31494514 962.66332829 -125.35464701 961.49784233 -123.39453125 960.33203125 C-122.36223389 959.71884033 -122.36223389 959.71884033 -121.30908203 959.09326172 C-111.10729341 953.03207522 -100.946467 946.90692453 -90.81439209 940.73001099 C-80.09500061 934.19683763 -69.30850163 927.78074816 -58.50073242 921.39501953 C-51.78372256 917.42205001 -45.0921903 913.41362015 -38.4453125 909.32421875 C-37.79843475 908.92716736 -37.15155701 908.53011597 -36.4850769 908.12103271 C-33.41324882 906.23506091 -30.34621645 904.34208345 -27.28710938 902.43554688 C-26.20494141 901.76974609 -25.12277344 901.10394531 -24.0078125 900.41796875 C-22.59302612 899.53890869 -22.59302612 899.53890869 -21.1496582 898.64208984 C-18.43208786 897.22389802 -16.5826209 896.41490836 -13.51953125 896.26953125 C-10.8894043 897.41503906 -10.8894043 897.41503906 -8.03125 899.22265625 C-6.94908203 899.89490234 -5.86691406 900.56714844 -4.75195312 901.25976562 C-4.17630615 901.62674561 -3.60065918 901.99372559 -3.00756836 902.37182617 C-0.5358203 903.94737704 1.95560805 905.4905503 4.4460144 907.03637695 C5.7658488 907.85614425 7.08461705 908.67763027 8.40237427 909.50073242 C15.0278698 913.63431543 21.74013557 917.61531931 28.46664429 921.58166504 C39.18368884 927.90317684 49.85696763 934.29214786 60.48046875 940.76953125 C71.88216288 947.72023119 83.3473961 954.55850037 94.84423828 961.35058594 C101.11021012 965.05605931 107.35694053 968.78576212 113.546875 972.6171875 C114.6196167 973.27952393 115.6923584 973.94186035 116.79760742 974.62426758 C118.78789242 975.85784701 120.77398084 977.09823176 122.75512695 978.34643555 C123.62097412 978.88308838 124.48682129 979.41974121 125.37890625 979.97265625 C126.12833496 980.44348633 126.87776367 980.91431641 127.64990234 981.39941406 C128.55603271 981.83012207 128.55603271 981.83012207 129.48046875 982.26953125 C130.14046875 981.93953125 130.80046875 981.60953125 131.48046875 981.26953125 C132.40175997 978.44425807 132.40175997 978.44425807 133.16360474 974.92320251 C133.32048858 974.2526455 133.47737242 973.58208849 133.63901031 972.89121157 C134.1659485 970.62969032 134.6807928 968.36558386 135.19580078 966.10131836 C135.56975465 964.48526094 135.94444645 962.86937412 136.31982422 961.25364685 C137.33959448 956.85473039 138.3489696 952.45348557 139.35656214 948.05176616 C140.41027193 943.45659761 141.47343291 938.86361731 142.53561401 934.270401 C144.54681365 925.56672937 146.54944639 916.86110982 148.54904544 908.15476662 C150.82540207 898.24530704 153.11124453 888.33804365 155.39790559 878.43095767 C160.10268855 858.04624979 164.79549002 837.65879915 169.48046875 817.26953125 C196.63304701 809.83085885 223.79264155 802.42352553 251 795.1875 C253.12297284 794.62222766 255.24592822 794.05688972 257.36886597 793.4914856 C265.88079493 791.22510168 274.39294146 788.95959086 282.90795898 786.70483398 C288.26376538 785.28637701 293.6177957 783.86138915 298.97067833 782.43194008 C300.9751524 781.89799531 302.98028392 781.36651203 304.98609352 780.83760643 C307.73306948 780.11303884 310.47770355 779.38018751 313.22192383 778.64526367 C314.03534744 778.4329007 314.84877106 778.22053772 315.68684387 778.0017395 C319.99205364 776.89846843 319.99205364 776.89846843 323.48046875 774.26953125 C323.05451416 773.56795898 322.62855957 772.86638672 322.18969727 772.14355469 C321.58569092 771.1487207 320.98168457 770.15388672 320.359375 769.12890625 C319.34061279 767.45103027 319.34061279 767.45103027 318.30126953 765.73925781 C316.77203014 763.2205402 315.24309588 760.70163768 313.71435547 758.18261719 C309.8925514 751.88570078 306.06813948 745.59042445 302.234375 739.30078125 C294.33357435 726.32990314 286.51862078 713.3126234 278.78106689 700.24371338 C273.42036306 691.1916297 268.02369953 682.16302601 262.56048584 673.1723938 C261.49615724 671.42035675 260.43377691 669.6671496 259.37158203 667.91381836 C256.27442835 662.81282034 253.15435031 657.73212053 249.94140625 652.703125 C249.41417969 651.86958496 248.88695312 651.03604492 248.34375 650.17724609 C247.38771089 648.6707317 246.41988106 647.17159991 245.4375 645.68212891 C242.43339596 640.92994709 242.43339596 640.92994709 242.64501953 637.9609375 C243.6893458 634.59663219 245.31667201 631.75382476 247.13671875 628.765625 C247.51054688 628.13898453 247.884375 627.51234406 248.26953125 626.86671448 C249.49949318 624.8091885 250.7398474 622.75814448 251.98046875 620.70703125 C252.84757845 619.26141139 253.71410723 617.81544295 254.58007812 616.36914062 C260.69560113 606.16995804 266.87328465 596.00785982 273.0625 585.85327148 C278.84453792 576.35940653 284.52095732 566.80470836 290.18243408 557.23858643 C295.49777076 548.2599077 300.85799244 539.31100275 306.28619385 530.40008545 C309.35617184 525.359742 312.41794152 520.31440369 315.48046875 515.26953125 C316.14498047 514.17640625 316.80949219 513.08328125 317.49414062 511.95703125 C319.37329346 508.8580121 321.24111602 505.7524704 323.10546875 502.64453125 C323.66862793 501.71946777 324.23178711 500.7944043 324.81201172 499.84130859 C325.56442139 498.57988037 325.56442139 498.57988037 326.33203125 497.29296875 C326.77369629 496.55997559 327.21536133 495.82698242 327.67041016 495.07177734 C327.93772949 494.47703613 328.20504883 493.88229492 328.48046875 493.26953125 C327.69458705 491.12175572 327.69458705 491.12175572 325.75352764 490.6509037 C324.99606149 490.47660017 324.23859533 490.30229664 323.45817566 490.12271118 C322.15525826 489.81644806 322.15525826 489.81644806 320.82601929 489.5039978 C319.86402618 489.28692169 318.90203308 489.06984558 317.91088867 488.84619141 C316.39736061 488.49427734 316.39736061 488.49427734 314.85325623 488.13525391 C311.47427347 487.35172214 308.09266049 486.58020562 304.7109375 485.80859375 C302.32570334 485.25800257 299.94064048 484.70666883 297.55574036 484.15463257 C291.21347097 482.68869669 284.8689262 481.23284903 278.52386475 479.77905273 C272.28604533 478.34813103 266.05032036 476.90815074 259.81445312 475.46875 C249.96256728 473.1958641 240.10947404 470.92829264 230.25537109 468.66503906 C215.42832556 465.25947122 200.60445565 461.84020632 185.78125 458.41796875 C183.50717796 457.89303049 181.23310472 457.36809745 178.95903015 456.84317017 C173.79946894 455.65213362 168.63995323 454.46090017 163.48046875 453.26953125 C153.23370534 415.89516682 143.16026164 378.47670841 133.16381836 341.03466797 C132.91851033 340.11592329 132.6732023 339.19717861 132.4204607 338.25059319 C131.04897351 333.11377331 129.67784981 327.97685744 128.3086977 322.8394146 C127.90681435 321.33528331 127.50326055 319.8315971 127.09783459 318.32841682 C126.23898386 315.14202544 125.40428653 311.95698575 124.62268066 308.75036621 C124.24919495 307.2453656 124.24919495 307.2453656 123.86816406 305.70996094 C123.5676413 304.43895538 123.5676413 304.43895538 123.26104736 303.14227295 C122.87466095 302.21526581 122.87466095 302.21526581 122.48046875 301.26953125 C119.4585305 299.87569398 119.4585305 299.87569398 116.64672852 301.63037109 C115.48209559 302.31979021 114.32426051 303.02076726 113.171875 303.73046875 C112.54240463 304.10712677 111.91293427 304.48378479 111.26438904 304.87185669 C109.1845746 306.11972314 107.11391571 307.38201239 105.04296875 308.64453125 C103.58841913 309.52105991 102.13333416 310.39670077 100.67773438 311.27148438 C96.97015289 313.50329792 93.27010005 315.74723654 89.57305908 317.99645996 C87.63139625 319.17771133 85.68875967 320.35733681 83.74560547 321.53613281 C79.18313895 324.30422727 74.62149056 327.07364813 70.06469727 329.85107422 C61.24271596 335.2243429 52.36952158 340.50810849 43.48046875 345.76953125 C33.05086287 351.94373577 22.64983841 358.1614844 12.29296875 364.45703125 C11.19017578 365.12734375 10.08738281 365.79765625 8.95117188 366.48828125 C7.89478516 367.13152344 6.83839844 367.77476562 5.75 368.4375 C4.72471191 369.05802246 3.69942383 369.67854492 2.64306641 370.31787109 C0.3931497 371.70630973 -1.8227164 373.11591195 -4.02978516 374.56884766 C-4.61149979 374.94503738 -5.19321442 375.32122711 -5.79255676 375.70881653 C-7.41428658 376.75970714 -9.02643355 377.82534328 -10.63793945 378.8918457 C-13.51953125 380.26953125 -13.51953125 380.26953125 -15.98876953 380.21362305 C-19.21645671 379.00954565 -22.09275599 377.39829489 -25.0234375 375.61328125 C-25.65007797 375.23945313 -26.27671844 374.865625 -26.92234802 374.48046875 C-28.979874 373.25050682 -31.03091802 372.0101526 -33.08203125 370.76953125 C-34.52765111 369.90242155 -35.97361955 369.03589277 -37.41992188 368.16992188 C-47.61910446 362.05439887 -57.78120268 355.87671535 -67.93579102 349.6875 C-77.42965597 343.90546208 -86.98435414 338.22904268 -96.55047607 332.56756592 C-106.11889509 326.90310569 -115.64907216 321.1804268 -125.14453125 315.39453125 C-133.80492867 310.11924676 -142.48276666 304.87616878 -151.20703125 299.70703125 C-152.14047363 299.15225098 -153.07391602 298.5974707 -154.03564453 298.02587891 C-155.30190674 297.27830322 -155.30190674 297.27830322 -156.59375 296.515625 C-157.33197998 296.07919678 -158.07020996 295.64276855 -158.83081055 295.19311523 C-160.34496044 294.1895582 -160.34496044 294.1895582 -161.51953125 294.26953125 Z " fill="#56D2FF" transform="translate(655.51953125,1.73046875)"/>
</svg>
